<?xml version="1.0" encoding="UTF-8"?>
<svg version="1.1" xmlns="http://www.w3.org/2000/svg" width="876" height="526">
<path d="M0 0 C289.08 0 578.16 0 876 0 C876 173.58 876 347.16 876 526 C586.92 526 297.84 526 0 526 C0 352.42 0 178.84 0 0 Z " fill="#FEFEFE" transform="translate(0,0)"/>
<path d="M0 0 C1.32161133 -0.01740234 1.32161133 -0.01740234 2.66992188 -0.03515625 C13.29947702 0.01191189 21.2744036 3.36491014 29.0625 10.625 C35.73959145 17.53792691 38.43432366 26.09220976 38.75 35.5625 C38.41348658 49.85442307 33.31940179 60.88754606 23.69921875 71.27734375 C19.68768979 74.99788097 15.19149759 77.70549923 10.4375 80.375 C9.68082031 80.81457031 8.92414063 81.25414062 8.14453125 81.70703125 C-1.37813373 86.8699219 -12.80624001 90.93626459 -23.5625 92.375 C-19.68362277 98.6781755 -15.85685698 101.88166696 -8.68164062 103.90551758 C8.87907166 107.79598414 24.60528419 101.04034533 39.4375 92.375 C41.18851697 90.62398303 40.71291772 88.12771156 40.83203125 85.7421875 C41.9607978 65.43679364 44.30912339 46.12307024 49.875 26.5 C50.15110107 25.51926514 50.42720215 24.53853027 50.71166992 23.52807617 C53.12138236 15.46814726 56.00058286 7.02307321 63.4375 2.375 C67.71648642 0.24325858 71.73800695 0.00867065 76.4375 0 C77.48550781 -0.03673828 77.48550781 -0.03673828 78.5546875 -0.07421875 C82.01041042 -0.09377945 84.34820997 0.32965741 87.4375 1.8984375 C89.70965863 4.71200893 90.02181884 6.43751972 89.78759766 10.01953125 C89.08767576 14.72862922 87.86556469 19.2839998 86.625 23.875 C84.48829905 32.0909236 82.5415368 40.23760575 81.09375 48.60546875 C80.63670249 51.23077143 80.14407481 53.82103443 79.59375 56.42578125 C77.95919685 64.40191605 77.15660272 72.09796831 77.125 80.25 C77.11960205 81.11270508 77.1142041 81.97541016 77.10864258 82.86425781 C77.10623639 87.90950718 77.10623639 87.90950718 79.4375 92.375 C83.1272474 92.11757576 85.05101816 91.69384752 87.9375 89.3125 C88.7625 88.343125 89.5875 87.37375 90.4375 86.375 C90.88738281 85.86453125 91.33726562 85.3540625 91.80078125 84.828125 C106.4757498 66.94918758 113.48686861 40.71213867 119.4140625 18.7578125 C121.2140228 12.30429632 122.93155586 6.58542787 128.4375 2.375 C132.68198204 0.13148806 136.79755681 0.04094893 141.5 0.0625 C142.20705078 0.04638672 142.91410156 0.03027344 143.64257812 0.01367188 C146.65648478 0.01084192 148.96460924 0.11845113 151.63989258 1.56982422 C153.4375 3.375 153.4375 3.375 153.95556641 5.70092773 C153.79336259 17.11339746 151.73867445 28.21362364 149.8125 39.4375 C149.44462738 41.62889959 149.07777663 43.82047096 148.71191406 46.01220703 C147.80009119 51.46176399 146.87713546 56.90936001 145.95031738 62.35638428 C144.80734692 69.08429314 143.68134803 75.81505858 142.55633545 82.54598999 C142.19065498 84.73114711 141.82312602 86.91598837 141.45556641 89.10083008 C139.73792627 99.34999451 138.16558312 109.61470913 136.72949219 119.90771484 C136.04373733 124.73508852 135.25208972 129.4084549 133.99121094 134.12646484 C132.96974391 138.27448571 132.2357087 142.48304469 131.43383789 146.67797852 C128.7840103 160.46973736 125.69126541 173.97721056 121.4375 187.375 C121.16292969 188.24946777 120.88835937 189.12393555 120.60546875 190.02490234 C103.05343905 245.53620175 103.05343905 245.53620175 78.5 258.625 C68.89317582 263.01669105 57.6540932 264.28851363 47.4375 261.125 C39.20568553 257.82923664 32.23379033 251.88969986 28.5625 243.6875 C24.05513885 230.41582549 26.19931603 215.87803028 32.05126953 203.35424805 C39.32521676 188.66761823 49.07877818 177.01728245 60.4375 165.375 C61.42333031 164.34910555 62.4090175 163.32307355 63.39453125 162.296875 C68.51067325 157.05630608 73.81170123 152.26532108 79.5390625 147.703125 C83.35103831 144.64121451 87.05904536 141.46318077 90.75927734 138.26757812 C91.26668457 137.83380859 91.7740918 137.40003906 92.296875 136.953125 C92.80210693 136.51548828 93.30733887 136.07785156 93.82788086 135.62695312 C95.4375 134.375 95.4375 134.375 97.29907227 133.35742188 C100.4663279 131.56757428 102.10038606 130.30529971 103.36572266 126.81347656 C104.02563212 123.67187813 104.48527983 120.56120003 104.875 117.375 C105.03419922 116.29476562 105.19339844 115.21453125 105.35742188 114.1015625 C106.01506054 109.48955107 106.52267538 105.03901321 106.4375 100.375 C106.01791016 101.50035156 106.01791016 101.50035156 105.58984375 102.6484375 C100.62211763 115.33131384 93.38886793 127.09723162 80.5 132.875 C73.70738455 135.23033415 67.48539267 135.44957747 60.75 132.8125 C55.72198226 130.32081803 50.98104206 126.46208412 48.4375 121.375 C44.48418747 122.1143976 41.0775691 123.93274187 37.5 125.6875 C18.07483942 134.96653598 -4.70352099 137.92702285 -25.5625 131.375 C-39.26052328 126.41620581 -50.20801804 117.99587482 -57.3515625 105.05078125 C-66.34985817 85.16745049 -65.52014341 62.93074931 -58.3125 42.6875 C-51.52293291 26.03689498 -39.49640998 12.57293727 -23.41015625 4.515625 C-15.52662143 1.3578854 -8.49945124 -0.11241008 0 0 Z " fill="#383838" transform="translate(344.5625,207.625)"/>
<path d="M0 0 C1.19551987 -0.01210762 1.19551987 -0.01210762 2.41519165 -0.02445984 C4.10115424 -0.03824382 5.78714407 -0.0489912 7.47314453 -0.05688477 C9.16593846 -0.06832039 10.8586988 -0.08863606 12.55126953 -0.1184082 C24.23139088 -0.32326238 34.49874185 0.75398149 45.6640625 4.23828125 C46.88802734 4.61569458 46.88802734 4.61569458 48.13671875 5.00073242 C56.99259976 7.94361316 64.52727333 12.21625625 71.6640625 18.23828125 C72.39238281 18.83125 73.12070312 19.42421875 73.87109375 20.03515625 C81.48983603 26.85269236 87.13450947 37.36158115 87.82519531 47.63500977 C88.309827 76.28181426 88.309827 76.28181426 80.6640625 85.23828125 C74.81281727 90.74356596 70.98741111 91.71514717 63.0078125 91.64453125 C57.93570608 91.02829402 54.9663054 89.0654961 51.6640625 85.23828125 C47.5555102 78.4334915 48.35506336 71.89109669 49.1640625 64.30078125 C50.56342235 53.0770627 50.56342235 53.0770627 46.25390625 42.984375 C39.50327285 35.57028869 29.23740494 32.68630243 19.49755859 32.02246094 C15.86343475 31.88188957 12.23831463 31.82109163 8.6015625 31.80078125 C7.43077148 31.79071045 6.25998047 31.78063965 5.05371094 31.77026367 C-8.21584191 31.90124988 -20.80085045 34.50401667 -31.6484375 42.48828125 C-37.61616351 48.59479159 -40.3786231 55.37122815 -40.6484375 63.86328125 C-40.51931948 72.54001231 -37.44705766 80.17466544 -31.41015625 86.4140625 C-19.00185002 97.32682899 -1.93629305 103.22605529 13.15838623 109.34967041 C22.75226566 113.24507253 32.22134594 117.26440779 41.4140625 122.05078125 C42.22794434 122.47020996 43.04182617 122.88963867 43.88037109 123.32177734 C58.47284343 131.13928243 71.20580041 142.87168948 76.15625 159.0703125 C79.03367743 171.35471421 77.93465911 183.15564051 74.6640625 195.23828125 C74.42042969 196.18445313 74.17679688 197.130625 73.92578125 198.10546875 C69.38908949 212.94109584 57.62410272 223.35810146 44.66015625 231.01171875 C41.70579932 232.56167432 38.73326216 233.93132027 35.6640625 235.23828125 C34.15199219 235.89763672 34.15199219 235.89763672 32.609375 236.5703125 C2.97573101 248.33138703 -36.55425889 248.5638383 -66.18066406 236.65942383 C-71.98119296 234.12972261 -77.25825658 230.99891279 -82.3359375 227.23828125 C-83.07457031 226.69429687 -83.81320313 226.1503125 -84.57421875 225.58984375 C-93.90590497 218.10340622 -98.81271141 206.98134722 -101.0859375 195.42578125 C-101.19993863 194.03211742 -101.27842249 192.63541659 -101.3359375 191.23828125 C-101.3875 190.18769531 -101.4390625 189.13710938 -101.4921875 188.0546875 C-101.75871505 177.91553546 -101.18230861 167.2928355 -94.3359375 159.23828125 C-89.11664037 154.42046851 -84.62314658 152.80186872 -77.609375 152.98828125 C-71.37099412 153.67428877 -67.36253556 156.61953641 -63.3359375 161.23828125 C-61.8735176 164.16312104 -62.31642278 166.67370063 -62.4140625 169.93359375 C-62.4413506 171.30336115 -62.46734978 172.67315472 -62.4921875 174.04296875 C-62.53519014 176.19603295 -62.58541134 178.34772394 -62.65820312 180.5 C-63.12818127 191.26533414 -63.12818127 191.26533414 -58.72607422 200.82666016 C-56.23764606 203.35354664 -53.55647536 204.88675118 -50.3359375 206.23828125 C-49.11197266 206.76035156 -49.11197266 206.76035156 -47.86328125 207.29296875 C-27.38956638 215.36462037 -1.41837765 214.79204376 19.10546875 206.91796875 C26.39955266 203.28581268 32.18170502 198.03664439 35.6015625 190.55078125 C37.73132102 183.80210895 38.06689631 175.46683344 35.1640625 168.92578125 C25.10480706 152.51511879 4.26162922 146.69652663 -12.64453125 139.94140625 C-64.89593713 118.99615274 -64.89593713 118.99615274 -76.30078125 95.015625 C-79.48157635 86.48149174 -80.86125725 79.07158094 -80.7734375 69.92578125 C-80.76207764 68.2703833 -80.76207764 68.2703833 -80.75048828 66.58154297 C-80.58632356 58.46317789 -79.7825235 51.67904168 -76.3359375 44.23828125 C-75.91183594 43.29339844 -75.48773438 42.34851563 -75.05078125 41.375 C-66.13640686 23.4220956 -49.48972781 11.56884853 -30.87109375 5.30078125 C-20.70801992 2.24624414 -10.62713939 0.10466328 0 0 Z " fill="#383838" transform="translate(195.3359375,98.76171875)"/>
<path d="M0 0 C2.01499488 -0.01188859 4.02690772 -0.0612196 6.04125977 -0.11157227 C22.09182158 -0.19833206 34.57484814 6.08806109 46.25024414 16.73803711 C55.73682005 26.63141302 61.24144185 39.01741947 66.48266602 51.49731445 C69.690516 58.96401517 73.95067808 63.68817897 79.71508789 69.42553711 C72.07262136 69.93090803 64.43008671 70.43523825 56.78746986 70.93833065 C53.23661746 71.17210437 49.68578718 71.40620312 46.13500977 71.64111328 C30.99905651 72.64224465 15.86418697 73.64151168 0.71508789 74.42553711 C1.31341431 73.52847046 1.31341431 73.52847046 1.92382812 72.61328125 C2.95124992 71.07152868 3.97643092 69.52828209 5.00024414 67.98413086 C6.0743975 66.38146469 7.16336047 64.78851819 8.27368164 63.21069336 C15.34346495 53.05591369 20.0008874 42.96674103 18.71508789 30.42553711 C16.608542 26.21244534 13.74484147 24.42070577 9.28149414 22.92163086 C3.84223147 21.87020565 -1.77612871 22.03685768 -7.28491211 22.42553711 C-7.77991211 22.92053711 -7.77991211 22.92053711 -8.28491211 23.42553711 C-7.17116211 23.87928711 -6.05741211 24.33303711 -4.90991211 24.80053711 C-1.28491211 26.42553711 -1.28491211 26.42553711 0.71508789 28.42553711 C0.77758789 30.67553711 0.77758789 30.67553711 -0.28491211 33.42553711 C-5.18563407 38.54901916 -10.82570542 41.38092903 -17.06616211 44.64428711 C-31.96329731 52.8883328 -40.424924 65.70831902 -45.47241211 81.73803711 C-48.2960253 92.43612328 -49.70966078 103.48797996 -51.28491211 114.42553711 C-51.48342773 115.70944336 -51.68194336 116.99334961 -51.88647461 118.31616211 C-52.60130905 124.28005595 -52.46925252 130.30363851 -52.47241211 136.30053711 C-52.49078125 138.12391602 -52.49078125 138.12391602 -52.50952148 139.98413086 C-52.52707924 150.83482309 -51.72571967 161.30522047 -45.28491211 170.42553711 C-40.95541178 174.67831212 -35.40239316 174.82430732 -29.59741211 174.92553711 C-17.48129052 174.77350491 -5.49093638 171.05141536 3.55883789 162.73022461 C9.1205023 156.65056204 11.48331729 150.31123887 11.16821289 142.06225586 C10.17218695 136.26641528 6.57948201 133.76181959 1.98461914 130.46850586 C-7.82162646 124.09749163 -18.44638661 119.71926067 -29.28491211 115.42553711 C-29.28491211 115.09553711 -29.28491211 114.76553711 -29.28491211 114.42553711 C-28.2153125 114.37018799 -27.14571289 114.31483887 -26.04370117 114.2578125 C-22.0701794 114.05115386 -18.09694627 113.83933912 -14.1237793 113.62597656 C-12.40510357 113.53440246 -10.68635304 113.44422125 -8.9675293 113.35546875 C-6.49498782 113.22755403 -4.02275989 113.09460987 -1.55053711 112.96069336 C-0.7837262 112.92210709 -0.01691528 112.88352081 0.77313232 112.84376526 C4.22200982 112.65244218 7.37786883 112.26478721 10.71508789 111.42553711 C13.39422005 111.19415588 16.05459671 111.00664448 18.73852539 110.86694336 C19.52794525 110.82469131 20.31736511 110.78243927 21.13070679 110.73890686 C30.20009973 110.29500008 39.26241292 110.31526936 48.34008789 110.36303711 C50.04060737 110.36807304 51.74112834 110.37263217 53.44165039 110.37670898 C57.5328341 110.38752387 61.62394363 110.4046672 65.71508789 110.42553711 C59.71508789 118.42553711 59.71508789 118.42553711 58.05810547 120.57641602 C48.89761488 133.18895114 57.26885582 166.14561652 59.10522461 180.64379883 C59.6746721 185.28301992 59.7877956 189.76185712 59.71508789 194.42553711 C32.18175456 199.42553711 32.18175456 199.42553711 23.71508789 199.42553711 C23.71508789 188.20553711 23.71508789 176.98553711 23.71508789 165.42553711 C21.73508789 168.72553711 19.75508789 172.02553711 17.71508789 175.42553711 C8.98007016 187.30722461 -4.16560447 195.41600102 -18.69897461 198.14428711 C-41.34233977 200.6070096 -64.00263709 194.46404075 -81.89819336 180.36694336 C-95.91901793 168.43115795 -104.2480742 152.45220695 -107.28491211 134.42553711 C-107.41510742 133.69592773 -107.54530273 132.96631836 -107.67944336 132.21459961 C-112.0651155 101.69032149 -104.32532754 67.61469149 -86.01831055 42.7019043 C-69.96776003 22.00174295 -48.58448348 8.826268 -23.28491211 2.42553711 C-22.60243408 2.24966064 -21.91995605 2.07378418 -21.21679688 1.89257812 C-14.17133968 0.26344838 -7.21495639 0.02004397 0 0 Z " fill="#383838" transform="translate(615.284912109375,139.574462890625)"/>
<path d="M0 0 C0.84691406 0.06960937 1.69382812 0.13921875 2.56640625 0.2109375 C16.28962828 2.00873951 28.65070795 9.75448392 37.02734375 20.6328125 C41.12115744 26.70862055 43.93491705 32.98263281 46 40 C46.35835937 41.20269531 46.71671875 42.40539062 47.0859375 43.64453125 C48.32754995 48.74095207 48.34294785 53.77688875 48.3125 59 C48.30686035 60.01384766 48.3012207 61.02769531 48.29541016 62.07226562 C48.00367439 80.31586081 43.66409475 97.61180669 32 112 C31.38253906 112.77988281 30.76507812 113.55976563 30.12890625 114.36328125 C20.90120354 125.41053098 7.49494708 133.44848807 -7 135 C-20.53290366 135.87788297 -33.35023549 134.65777856 -44.52734375 126.0546875 C-57.57658714 114.25326479 -65.68103056 100.89118227 -67 83 C-67.78018694 67.15008563 -66.49954581 52.66661359 -60 38 C-59.63003906 37.12601563 -59.26007812 36.25203125 -58.87890625 35.3515625 C-52.01234005 20.28788439 -39.32547184 8.98476455 -24 3 C-16.08182523 0.67370697 -8.24796604 -0.72186413 0 0 Z " fill="#383838" transform="translate(754,207)"/>
<path d="M0 0 C5.47531235 3.57348926 8.84056756 8.22134133 10.703125 14.46484375 C13.86171178 29.84833122 13.38222904 48.68270985 4.765625 62.15234375 C0.17294954 67.41711805 -3.82399524 70.86332852 -10.921875 71.46484375 C-16.38980734 71.36433029 -20.77738582 69.49475831 -24.7421875 65.71484375 C-31.13007183 57.75867644 -31.70962263 47.24923118 -31.546875 37.46484375 C-31.55009766 36.48451172 -31.55332031 35.50417969 -31.55664062 34.49414062 C-31.46780474 22.43668875 -28.38775486 11.75020904 -20.0234375 2.81640625 C-14.17239086 -2.62583364 -7.23165529 -3.53439009 0 0 Z " fill="#FCFCFC" transform="translate(754.234375,239.84765625)"/>
<path d="M0 0 C-3.44758763 22.08610826 -10.56408155 53.26567886 -27.984375 68.765625 C-31.47766309 70.90492546 -33.96144842 70.44872795 -38 70 C-40.56245842 67.6413735 -40.97992882 66.15369822 -41.43359375 62.6796875 C-41.44184798 54.64006566 -40.85055084 48.19384349 -37 41 C-36.32324219 39.63875 -36.32324219 39.63875 -35.6328125 38.25 C-28.96861765 25.78364545 -19.0298511 15.67520109 -8.8125 6.0625 C-8.16474609 5.45293457 -7.51699219 4.84336914 -6.84960938 4.21533203 C-2.25819279 0 -2.25819279 0 0 0 Z " fill="#FAFAFA" transform="translate(441,372)"/>
<path d="M0 0 C0.95003906 -0.00515625 1.90007812 -0.0103125 2.87890625 -0.015625 C5.4375 0.25 5.4375 0.25 8.4375 2.25 C8.4375 2.91 8.4375 3.57 8.4375 4.25 C9.0975 4.25 9.7575 4.25 10.4375 4.25 C12.32225924 9.90427772 12.37791579 15.96103467 9.875 21.4375 C3.42237112 32.48014324 -7.94998387 37.8886099 -19.9375 41.1875 C-21.47542494 41.55757704 -23.01578776 41.91856166 -24.5625 42.25 C-25.15474666 29.68120981 -23.06514349 17.14084828 -14.82421875 7.140625 C-10.19418243 2.34204346 -6.84163643 -0.0372334 0 0 Z " fill="#FBFBFB" transform="translate(340.5625,235.75)"/>
<path d="M0 0 C0 0.99 0 1.98 0 3 C0.3062434 4.33981486 0.63451555 5.67511887 1 7 C-0.98 7.66 -2.96 8.32 -5 9 C-3.90931332 5.22454612 -3.0916909 2.52956528 0 0 Z " fill="#444444" transform="translate(102,257)"/>
<path d="M0 0 C0 0.99 0 1.98 0 3 C0.31088368 4.67099977 0.64080332 6.33871537 1 8 C-1.31 8 -3.62 8 -6 8 C-4.02 5.36 -2.04 2.72 0 0 Z " fill="#414141" transform="translate(301,227)"/>
<path d="M0 0 C0.33 1.32 0.66 2.64 1 4 C0.01 4 -0.98 4 -2 4 C-3.67099977 4.31088368 -5.33871537 4.64080332 -7 5 C-7 4.01 -7 3.02 -7 2 C-2.25 0 -2.25 0 0 0 Z " fill="#434343" transform="translate(214,306)"/>
<path d="M0 0 C2 3 2 3 1.625 5.1875 C1.41875 5.785625 1.2125 6.38375 1 7 C0.01 6.34 -0.98 5.68 -2 5 C-2 3.68 -2 2.36 -2 1 C-1.34 0.67 -0.68 0.34 0 0 Z " fill="#414141" transform="translate(533,313)"/>
<path d="M0 0 C2.31 0.33 4.62 0.66 7 1 C7 2.32 7 3.64 7 5 C4.69 4.34 2.38 3.68 0 3 C0 2.01 0 1.02 0 0 Z " fill="#464646" transform="translate(193,240)"/>
<path d="M0 0 C0.66 0.66 1.32 1.32 2 2 C1.25 4.4375 1.25 4.4375 0 7 C-1.32 7.33 -2.64 7.66 -4 8 C-2.68 5.36 -1.36 2.72 0 0 Z " fill="#464646" transform="translate(424,424)"/>
<path d="M0 0 C0.99 0 1.98 0 3 0 C2 3 2 3 0.125 4.25 C-2 5 -2 5 -5 4 C-3.35 3.34 -1.7 2.68 0 2 C0 1.34 0 0.68 0 0 Z " fill="#484848" transform="translate(270,185)"/>
</svg>
